<svg xmlns="http://www.w3.org/2000/svg" width="505" height="505" viewBox="0 0 505 505"><path fill="#FBDE34" d="M0 .498h504.67V504.94H0z"/><path d="M217.503 388.691v14.757h-16.155v39.766c0 3.729.621 6.214 1.864 7.457 1.243 1.242 3.728 1.863 7.456 1.863 1.243 0 2.432-.051 3.573-.155a30.084 30.084 0 003.262-.466V469c-1.864.311-3.937.517-6.213.621a147.99 147.99 0 01-6.68.155c-3.417 0-6.655-.232-9.708-.698-3.056-.467-5.747-1.372-8.077-2.719-2.33-1.345-4.17-3.262-5.515-5.747-1.347-2.485-2.019-5.748-2.019-9.786v-47.378h-13.359v-14.757h13.359v-24.077h22.058v24.077h16.154zm31.066-30.6v41.785h.466c2.796-4.66 6.369-8.051 10.718-10.175 4.349-2.121 8.594-3.185 12.737-3.185 5.903 0 10.742.804 14.524 2.408 3.778 1.606 6.757 3.832 8.932 6.68 2.175 2.849 3.701 6.317 4.582 10.407.879 4.092 1.32 8.621 1.32 13.592V469H279.79v-45.357c0-6.627-1.036-11.573-3.106-14.835-2.073-3.262-5.747-4.894-11.029-4.894-6.007 0-10.356 1.787-13.048 5.359-2.694 3.573-4.039 9.451-4.039 17.631V469H226.51V358.091h22.059zm85.898 91.647c3.313 3.211 8.077 4.815 14.291 4.815 4.451 0 8.283-1.111 11.495-3.34 3.208-2.226 5.177-4.582 5.902-7.067h19.417c-3.106 9.631-7.871 16.519-14.291 20.659-6.422 4.144-14.188 6.214-23.3 6.214-6.318 0-12.015-1.01-17.087-3.029-5.075-2.02-9.374-4.893-12.894-8.621-3.521-3.728-6.24-8.18-8.154-13.358-1.918-5.178-2.874-10.874-2.874-17.087 0-6.005.982-11.597 2.951-16.776 1.966-5.177 4.762-9.655 8.388-13.437 3.624-3.779 7.947-6.757 12.971-8.932 5.021-2.175 10.587-3.263 16.699-3.263 6.834 0 12.788 1.32 17.863 3.962 5.072 2.641 9.242 6.188 12.504 10.64 3.263 4.454 5.617 9.529 7.068 15.224 1.449 5.696 1.966 11.649 1.553 17.863H329.03c.311 7.146 2.121 12.325 5.437 15.533zm24.931-42.251c-2.641-2.898-6.655-4.35-12.039-4.35-3.521 0-6.446.598-8.776 1.786-2.33 1.192-4.193 2.668-5.592 4.428-1.398 1.762-2.384 3.626-2.951 5.592-.57 1.969-.908 3.728-1.01 5.281h35.882c-1.036-5.591-2.873-9.836-5.514-12.737zm53.823-18.796v11.185h.466c2.796-4.66 6.42-8.051 10.874-10.175 4.451-2.121 9.009-3.185 13.669-3.185 5.903 0 10.742.804 14.524 2.408 3.778 1.606 6.757 3.832 8.932 6.68 2.175 2.849 3.701 6.317 4.582 10.407.879 4.092 1.32 8.621 1.32 13.592V469H445.53v-45.357c0-6.627-1.036-11.573-3.106-14.835-2.073-3.262-5.747-4.894-11.029-4.894-6.007 0-10.356 1.787-13.048 5.359-2.694 3.573-4.039 9.451-4.039 17.631V469H392.25v-80.309h20.971z" fill="#524739"/></svg>